<!--?xml version="1.0" standalone="no"?-->
              <svg id="sw-js-blob-svg" viewBox="0 0 100 100" xmlns="http://www.w3.org/2000/svg" version="1.1">
                    <defs> 
                        <linearGradient id="sw-gradient" x1="0" x2="1" y1="1" y2="0">
                            <stop id="stop1" stop-color="rgba(0, 0.107, 151.477, 1)" offset="0%"></stop>
                            <stop id="stop2" stop-color="rgba(45.248, 0, 58.129, 1)" offset="100%"></stop>
                        </linearGradient>
                    </defs>
                <path fill="url(#sw-gradient)" d="M20.2,-30.3C24.6,-24.7,25.3,-16.6,26.4,-9.5C27.5,-2.4,29,3.8,28.7,10.8C28.5,17.9,26.6,26,21.5,29.5C16.5,33,8.2,32.1,1.3,30.3C-5.6,28.5,-11.3,25.9,-18.2,22.9C-25.2,20,-33.5,16.8,-35.4,11.4C-37.3,6,-32.8,-1.6,-29.4,-8.7C-25.9,-15.8,-23.5,-22.4,-18.8,-27.9C-14.1,-33.3,-7,-37.7,0.5,-38.3C7.9,-38.9,15.9,-35.9,20.2,-30.3Z" width="100%" height="100%" transform="translate(50 50)" stroke-width="0" style="transition: all 0.3s ease 0s;" stroke="url(#sw-gradient)"></path>
              </svg>